<?xml version="1.0" encoding="utf-8"?>
<!-- Generator: Adobe Illustrator 19.2.1, SVG Export Plug-In . SVG Version: 6.00 Build 0)  -->
<svg version="1.1" id="Layer_1" xmlns="http://www.w3.org/2000/svg" xmlns:xlink="http://www.w3.org/1999/xlink" x="0px" y="0px"
	 viewBox="0 0 1920 718" style="enable-background:new 0 0 1920 718;" xml:space="preserve">
<style type="text/css">
	.st0{fill:none;stroke:#CDB956;stroke-width:2;stroke-miterlimit:10;}
</style>
<path class="st0" d="M253.3,945.7c0,0,15.5,8.4,19.6,14.4c2.2,3.2,4.8,8.9,6.3,10.5s5.3,1.2,7.2-0.9c1.8-1.9,9,3.7,19.1-5
	c0.7-0.6,1.7-0.7,2.6-0.2c2.1,1.2,6.2,4,9.5,8.6c3.9,5.5,20.2-6.4,20.2-6.4s2.4-1.7,2,2.1c-0.3,3.2,12.2-6.7,21.2-11.4
	c8.9-4.7,56.7-19.4,67-24.2c9.5-4.4,14.3-3.4,16.8-5.2c4.6-3.4,25.7-32.8,37.4-40.6s17.7-5.4,19-5c1.3,0.4,0.1,3.5,1.4,4.2
	c1.3,0.7,3.8,4.2,6.6,3.7c2.8-0.5,33.4-26.7,36.6-27.2s5.8-1.2,7.6-1.9s7.8-4.8,12.8-6.4c4.9-1.6,6.4,1.3,15.1-0.7
	c8.7-2,13.8-3,26.8-6.9s43.5-16.1,48.3-18.8c4.8-2.7,30.4-24.6,39.8-25.1c9.4-0.5,8.3-0.8,10.1-1.5c1.8-0.7,6.1-5.9,7.7-6.4
	s2.6-0.6,3.1-0.9c0.5-0.3,6.4-9.8,18.6-13.4c12.2-3.6,4-5.9,10.5-11.3c6.5-5.3,7.9-5.6,12-10.8c4.1-5.3,8.1-9.7,9.8-13.2
	c1.7-3.5,3-6.4,5.1-7.3c2.1-0.9,13.1-2.4,14.7-2c1.6,0.3,0.9,1.7,4.8,1.2c3.9-0.5,6.5-6.6,7.3-10.7s3.7-13,12-17.2
	c8.3-4.2,6-4.8,6.6-5.8c0.6-0.9,10.2-10.1,19.4-15.2c4.5-2.5,7.1-5.3,10.6-8.4c4-3.6,9-6.5,11.7-7.7c5-2.2,14.9-20.3,15-20.5
	c0.1-0.3,9.5-17,13-16.6c3.5,0.4,2.2,3.6,14.3,4.7c12.2,1.1,4.4,5.1,13.3,5.3c8.8,0.2,12.9-11.1,22.9-12.9c10-1.8,13.4,1.6,19.7,1.8
	c8.2,0.2,16.7,3.7,30.8,12.5c14.1,8.8,11.6,10.4,14.5,10.3c2.9-0.2,7.2-1.6,9.3-1.8c2.2-0.2,5.3,3.1,8,2c2.7-1.1,5.4-3,6.4-2.8
	c1,0.2,28.4,13,28.8,12.7c0.4-0.3,18,0.3,18,0.3s5.5,1.6,9.1,2.7c3.6,1.1,16.7,0.9,18,0.6s29.4-12.2,31.3-12.2s9.6,0.6,10.3,0.8
	c0.8,0.2,5,3.9,6.2,4c1.2,0.1,9.3,0.1,9.8-0.3c0.6-0.4,13.4-8.3,13.4-8.7c0-0.4-0.1-18.9,0.3-19.3c0.4-0.4,0.3-3.6,5.3-4.7
	c5-1.1,4.7,0.6,5.3,0c1.4-1.3,1.7-3.1,2-6.2c0.2-1.9,29.5-17.4,32.5-18.9s19.9-5.8,23.5-9.3s11-7.8,13.5-13.1
	c2.5-5.3,9.8-13.3,22.5-23c4.2-3.2,10.1-9.7,16.9-16.9c11-11.6,24-25.9,33.4-36.8c8.2-9.5,10.1-17.4,12.4-18.4s18.1-10.7,36.1-12.6
	c4.9-0.5,7.6-15.6,27.6-18.7c16-2.5,16.9,1.5,22.8,2.2c7.7,0.8,12.4-1.5,27.8-2.8c6.7-0.6,16.9,2,19.3,4.2s6.3,6.9,16.3,11.6
	c9.2,4.3,15,8.5,16.3,9.5c1.3,1,8.2,8.4,10,9.9c3.3,2.8,12.1,9.4,13.8,12.1c1.3,2,7.6,12.2,9.7,14.3c2.8,2.9,7.4,9.4,19.3,15
	c5.1,2.4,8.9,4,12.3,6.1c5.9,3.7,10.1,8.1,15.8,16c2.4,3.3,2.3,5.7,3.8,7.6c4.4,5.4,10.3,8.5,11.7,9.5c1.9,1.3,20.3,17.9,29,25
	c5.3,4.3,18.5,9,19.3,8.8c1.9-0.6,14.1-7.9,14.1-7.9"/>
</svg>
